<svg  xmlns="http://www.w3.org/2000/svg" width="419.002" height="125.403" viewBox="0 0 419.002 125.403"><g id="svgGroup" stroke-linecap="round" fill-rule="evenodd" font-size="9pt" style="stroke:none;stroke-width:0.25mm;fill:#ffffff"><path d="M 145.402 120.705 A 30.375 30.375 0 0 0 149.802 121.002 A 9.355 9.355 0 0 0 154.592 119.5 Q 161.719 115.231 170.653 98.821 A 217.999 217.999 0 0 0 170.913 98.34 A 109.206 109.206 0 0 0 170.975 98.888 Q 171.438 102.757 172.18 105.91 A 34.351 34.351 0 0 0 174.202 112.102 A 14.121 14.121 0 0 0 184.127 120.309 Q 186.853 121.002 190.202 121.002 A 29.908 29.908 0 0 0 194.046 120.753 Q 204.124 119.449 214.202 111.302 A 37.335 37.335 0 0 0 225.262 96.472 A 49.747 49.747 0 0 0 228.602 83.802 A 140.445 140.445 0 0 0 230.753 82.99 Q 237.163 80.509 241.583 78.027 A 39.822 39.822 0 0 0 242.269 77.638 A 278.044 278.044 0 0 0 241.802 92.902 A 415.114 415.114 0 0 0 241.843 98.909 Q 242.034 112.063 243.123 116.195 A 4.377 4.377 0 0 0 243.802 117.802 A 1.885 1.885 0 0 0 244.004 118.014 Q 244.751 118.697 246.822 119.426 A 31.778 31.778 0 0 0 248.302 119.902 A 25.314 25.314 0 0 0 251.424 120.614 A 30.758 30.758 0 0 0 256.402 121.002 A 9.355 9.355 0 0 0 261.192 119.5 Q 266.061 116.583 271.774 108 A 121.585 121.585 0 0 0 276.978 99.329 L 276.802 102.602 A 66.479 66.479 0 0 0 276.872 105.727 Q 277.229 113.291 279.402 116.802 A 7.756 7.756 0 0 0 283.004 119.817 Q 285.705 121.002 289.902 121.002 A 17.083 17.083 0 0 0 299.625 117.944 A 25.052 25.052 0 0 0 304.202 113.902 A 54.337 54.337 0 0 0 308.62 108.228 Q 312.811 102.109 317.002 93.202 Q 316.402 102.002 316.402 109.202 A 61.215 61.215 0 0 0 316.435 111.26 Q 316.566 115.135 317.223 116.827 A 2.808 2.808 0 0 0 317.802 117.802 A 12.456 12.456 0 0 0 321.159 119.685 Q 322.965 120.377 325.202 120.705 A 30.375 30.375 0 0 0 329.602 121.002 A 9.355 9.355 0 0 0 334.392 119.5 Q 339.261 116.583 344.974 108 A 121.585 121.585 0 0 0 350.313 99.081 A 30.638 30.638 0 0 0 356.402 112.502 A 21.208 21.208 0 0 0 365.571 119.489 A 23.715 23.715 0 0 0 374.202 121.002 A 31.88 31.88 0 0 0 386.206 118.722 Q 393.023 115.982 398.887 109.947 A 59.901 59.901 0 0 0 406.802 99.602 A 166.385 166.385 0 0 0 411.926 90.634 Q 419.002 77.218 419.002 69.602 A 3.606 3.606 0 0 0 418.972 69.114 Q 418.819 68.002 417.902 68.002 Q 417.06 68.002 416.335 68.94 A 5.459 5.459 0 0 0 415.902 69.602 A 19.363 19.363 0 0 0 415.834 69.724 Q 415.174 70.918 414.159 73.127 A 145.864 145.864 0 0 0 413.402 74.802 Q 407.402 88.802 399.002 99.802 A 36.329 36.329 0 0 1 395.755 103.498 A 27.939 27.939 0 0 1 390.202 107.802 A 20.034 20.034 0 0 1 386.516 109.481 A 22.066 22.066 0 0 1 379.402 110.602 A 11.859 11.859 0 0 1 372.017 108.029 A 17.833 17.833 0 0 1 368.902 104.902 A 24.353 24.353 0 0 1 365.904 100.027 A 26.918 26.918 0 0 1 363.602 91.402 A 49.931 49.931 0 0 0 369.561 90.891 A 38.348 38.348 0 0 0 388.302 82.902 A 33.491 33.491 0 0 0 390.391 81.084 A 24.288 24.288 0 0 0 398.402 62.802 A 17.16 17.16 0 0 0 398.325 61.15 A 12.113 12.113 0 0 0 394.002 52.702 A 15.196 15.196 0 0 0 387.931 49.613 A 20.484 20.484 0 0 0 382.802 49.002 A 30.991 30.991 0 0 0 370.254 51.484 A 30.143 30.143 0 0 0 359.002 60.202 A 34.571 34.571 0 0 0 353.652 69.433 Q 351.616 74.547 350.656 80.902 A 82.606 82.606 0 0 0 349.913 88.462 A 136.86 136.86 0 0 1 346.461 94.783 A 92.096 92.096 0 0 1 341.602 102.302 Q 335.602 110.602 332.202 110.802 A 0.514 0.514 0 0 1 331.906 110.708 Q 331.165 110.2 331.032 106.958 A 38.033 38.033 0 0 1 331.002 105.402 A 751.855 751.855 0 0 1 331.003 104.638 Q 331.026 82.156 332.399 74.043 A 17.112 17.112 0 0 1 333.202 70.802 Q 334.252 68.852 335.134 65.102 A 63.831 63.831 0 0 0 335.702 62.402 A 154.656 154.656 0 0 0 336.068 60.406 Q 336.802 56.236 336.802 54.602 Q 336.802 49.911 335.698 48.116 A 2.048 2.048 0 0 0 333.902 47.002 Q 331.705 47.002 328.646 49.414 A 28.886 28.886 0 0 0 326.602 51.202 A 152.877 152.877 0 0 0 325.102 52.653 Q 322.001 55.695 321.102 57.002 A 0.836 0.836 0 0 0 321.086 57.027 Q 320.127 58.533 318.641 73.89 A 709.105 709.105 0 0 0 318.202 78.602 A 196.484 196.484 0 0 1 317.649 79.996 Q 313.76 89.689 309.871 96.312 A 57.415 57.415 0 0 1 305.802 102.402 A 45.394 45.394 0 0 1 303.461 105.201 Q 298.711 110.402 295.002 110.402 A 2.273 2.273 0 0 1 293.255 109.573 Q 291.202 107.274 291.202 98.602 A 122.406 122.406 0 0 1 291.558 89.691 Q 292.236 80.465 294.202 68.402 Q 298.002 59.602 298.002 51.002 A 18.959 18.959 0 0 0 298.002 50.984 Q 298.001 49.254 297.686 48.359 A 2.075 2.075 0 0 0 297.402 47.802 Q 296.934 47.177 295.427 47.04 A 10.282 10.282 0 0 0 294.502 47.002 A 3.201 3.201 0 0 0 294.073 47.033 Q 291.751 47.348 287.102 50.902 A 177.556 177.556 0 0 0 284.78 52.707 Q 281.51 55.294 280.002 56.802 A 3.375 3.375 0 0 0 279.336 58.187 Q 278.207 62.03 278.034 75.155 A 384.125 384.125 0 0 0 278.002 80.202 L 277.661 86.577 A 136.86 136.86 0 0 1 273.261 94.783 A 92.096 92.096 0 0 1 268.402 102.302 Q 262.402 110.602 259.002 110.802 A 0.867 0.867 0 0 1 258.373 110.506 Q 257.093 109.192 256.856 102.046 A 107.606 107.606 0 0 1 256.802 98.502 A 591.19 591.19 0 0 1 256.861 90.395 Q 256.99 81.015 257.402 69.602 A 204.786 204.786 0 0 0 262.483 58.439 Q 267.509 46.427 270.178 35.339 A 102.318 102.318 0 0 0 273.202 11.402 A 17.53 17.53 0 0 0 272.827 7.844 A 22.304 22.304 0 0 0 271.602 3.902 A 10.665 10.665 0 0 0 271.588 3.868 Q 271.143 2.793 270.544 2.017 A 4.968 4.968 0 0 0 266.402 0.002 A 13.32 13.32 0 0 0 256.146 4.78 Q 251.448 10.017 248.771 20.995 A 102.502 102.502 0 0 0 246.802 31.802 A 984.657 984.657 0 0 0 245.882 39.115 Q 244.572 49.859 243.683 59.249 A 481.237 481.237 0 0 0 242.696 71.028 A 64.862 64.862 0 0 1 237.179 73.57 A 84.667 84.667 0 0 1 229.002 76.402 A 45.358 45.358 0 0 0 228.876 73.662 Q 228.567 69.662 227.54 66.317 A 22.679 22.679 0 0 0 222.802 57.702 Q 216.802 51.002 207.602 51.002 A 37.917 37.917 0 0 0 205.376 51.065 Q 201.047 51.32 198.002 52.602 A 203.594 203.594 0 0 0 200.218 43.686 Q 201.834 36.472 202.678 29.973 A 104.078 104.078 0 0 0 203.602 16.602 A 52.974 52.974 0 0 0 203.548 14.177 Q 203.299 8.747 201.902 4.802 Q 200.767 1.596 199.497 0.531 A 2.004 2.004 0 0 0 198.202 0.002 A 6.79 6.79 0 0 0 197.492 0.04 Q 193.607 0.448 189.302 5.302 A 37.805 37.805 0 0 0 186.439 8.998 Q 184.833 11.339 183.263 14.239 A 89.741 89.741 0 0 0 180.202 20.502 Q 177.177 27.308 174.909 37.565 A 181.986 181.986 0 0 0 173.002 47.602 A 204.438 204.438 0 0 0 171.649 57.435 A 235.993 235.993 0 0 0 170.202 84.002 A 160.95 160.95 0 0 0 170.253 88.188 A 136.86 136.86 0 0 1 166.661 94.783 A 92.096 92.096 0 0 1 161.802 102.302 Q 155.802 110.602 152.402 110.802 A 0.514 0.514 0 0 1 152.106 110.708 Q 151.365 110.2 151.232 106.958 A 38.033 38.033 0 0 1 151.202 105.402 Q 151.202 82.652 152.391 75.35 A 13.264 13.264 0 0 1 153.002 72.802 Q 154.052 70.852 154.934 67.102 A 63.831 63.831 0 0 0 155.502 64.402 A 154.656 154.656 0 0 0 155.868 62.406 Q 156.602 58.236 156.602 56.602 Q 156.602 51.911 155.498 50.116 A 2.048 2.048 0 0 0 153.702 49.002 Q 151.595 49.002 148.855 50.639 A 23.968 23.968 0 0 0 146.702 52.102 Q 143.82 54.282 142.173 56.017 A 14.012 14.012 0 0 0 141.002 57.402 A 52.797 52.797 0 0 0 139.397 55.786 Q 132.354 49.002 126.602 49.002 A 35.045 35.045 0 0 0 126.568 49.002 Q 117.802 49.011 111.037 53.374 A 31.722 31.722 0 0 0 102.702 61.402 Q 93.602 73.802 93.602 89.902 Q 93.602 99.996 95.961 106.71 A 22.943 22.943 0 0 0 99.602 113.502 A 24.589 24.589 0 0 0 102.931 116.957 A 16.152 16.152 0 0 0 113.602 121.002 Q 121.602 121.002 126.702 114.702 A 34.096 34.096 0 0 0 127.451 113.742 Q 130.628 109.518 133.843 102.702 A 132.479 132.479 0 0 0 137.002 95.402 Q 136.602 105.002 136.602 110.702 A 42.165 42.165 0 0 0 136.612 111.623 Q 136.719 116.519 138.002 117.802 A 12.456 12.456 0 0 0 141.359 119.685 Q 143.165 120.377 145.402 120.705 Z M 40.214 35.322 A 88.405 88.405 0 0 0 37.402 49.002 A 51.246 51.246 0 0 0 35.795 49.181 Q 30.364 49.877 28.288 51.476 A 2.885 2.885 0 0 0 27.002 53.802 Q 27.002 54.796 29.54 54.967 A 17.417 17.417 0 0 0 30.702 55.002 A 133.152 133.152 0 0 0 31.037 55.002 Q 33.368 54.996 35.081 54.908 A 39.187 39.187 0 0 0 36.602 54.802 Q 32.402 86.402 28.602 98.402 A 139.489 139.489 0 0 0 26.373 97.842 Q 17.962 95.802 13.002 95.802 Q 0.002 95.802 0.002 107.202 A 11.754 11.754 0 0 0 1.165 112.402 A 13.193 13.193 0 0 0 4.002 116.202 A 16.733 16.733 0 0 0 4.269 116.45 A 12.9 12.9 0 0 0 13.202 120.002 A 35.775 35.775 0 0 0 18.874 119.57 Q 27.77 118.142 33.602 112.002 Q 35.802 113.002 41.302 115.602 Q 45.599 117.633 47.638 118.566 A 100.307 100.307 0 0 0 48.602 119.002 Q 50.065 119.652 54.828 121.622 A 1604.21 1604.21 0 0 0 57.202 122.602 A 35.629 35.629 0 0 0 63.488 124.522 A 43.47 43.47 0 0 0 72.402 125.402 A 19.864 19.864 0 0 0 81.95 122.951 A 26.8 26.8 0 0 0 87.602 118.802 A 26.556 26.556 0 0 0 88.139 118.282 A 21.084 21.084 0 0 0 94.602 102.802 A 6.466 6.466 0 0 0 94.579 102.243 Q 94.367 99.802 92.202 99.802 A 0.582 0.582 0 0 0 92.032 99.829 Q 91.057 100.127 89.291 103.705 A 56.829 56.829 0 0 0 88.402 105.602 A 9.092 9.092 0 0 1 82.476 110.904 A 13.362 13.362 0 0 1 78.702 111.402 A 58.239 58.239 0 0 1 76.938 111.376 A 51.668 51.668 0 0 1 65.202 109.702 A 100.031 100.031 0 0 1 63.218 109.15 Q 56.275 107.151 40.402 101.802 Q 48.202 87.002 52.202 52.602 Q 68.602 49.002 80.802 40.802 Q 87.002 36.402 90.702 29.902 Q 94.402 23.402 94.402 15.602 A 15.38 15.38 0 0 0 94.39 14.975 Q 94.032 6.206 83.524 4.445 A 36.02 36.02 0 0 0 77.602 4.002 A 46.151 46.151 0 0 0 75.017 4.074 A 33.841 33.841 0 0 0 50.502 15.702 A 43.276 43.276 0 0 0 45.543 22.644 Q 42.309 28.232 40.214 35.322 Z M 125.402 57.002 A 9.129 9.129 0 0 0 121.11 58.166 Q 118.09 59.768 114.884 63.572 A 43.475 43.475 0 0 0 113.502 65.302 A 30.963 30.963 0 0 0 107.241 83.07 A 38.658 38.658 0 0 0 107.202 84.802 A 62.597 62.597 0 0 0 107.629 92.336 Q 108.091 96.147 109.057 99.348 A 30.121 30.121 0 0 0 110.502 103.202 Q 112.267 107.052 114.632 108.843 A 7.39 7.39 0 0 0 119.202 110.402 A 5.126 5.126 0 0 0 122.496 108.723 Q 128.233 103.383 137.162 81.061 A 375.506 375.506 0 0 0 138.602 77.402 A 45.425 45.425 0 0 0 138.709 76.458 Q 138.86 74.999 139.055 72.505 A 371.641 371.641 0 0 0 139.102 71.902 Q 139.332 68.916 139.503 67.044 A 123.363 123.363 0 0 1 139.602 66.002 A 13.158 13.158 0 0 0 137.694 63.452 Q 135.974 61.624 133.302 59.902 Q 128.802 57.002 125.402 57.002 Z M 198.802 20.202 A 50.211 50.211 0 0 0 198.749 17.782 Q 198.478 12.197 196.841 11.828 A 1.081 1.081 0 0 0 196.602 11.802 A 1.283 1.283 0 0 0 195.72 12.28 Q 194.326 13.727 192.579 19.558 A 87.42 87.42 0 0 0 192.302 20.502 Q 189.802 29.202 187.702 44.102 Q 185.602 59.002 185.602 73.602 A 467.033 467.033 0 0 0 191.222 56.742 Q 198.543 33.163 198.793 21.047 A 40.847 40.847 0 0 0 198.802 20.202 Z M 215.735 87.08 A 15.333 15.333 0 0 0 216.602 87.002 Q 215.715 94.324 213.258 99.4 A 20.941 20.941 0 0 1 208.302 106.102 Q 201.602 112.002 194.602 112.002 A 5.17 5.17 0 0 1 190.606 110.141 Q 189.14 108.497 188.202 105.402 Q 186.202 98.802 185.802 83.602 Q 188.402 79.002 190.402 74.002 A 17.345 17.345 0 0 0 193.449 79.375 A 19.231 19.231 0 0 0 198.702 83.702 A 35.438 35.438 0 0 0 200.758 84.796 Q 202.987 85.887 205.075 86.483 A 17.567 17.567 0 0 0 209.902 87.202 A 213.852 213.852 0 0 0 211.653 87.195 Q 214.32 87.174 215.735 87.08 Z M 52.802 46.802 A 60.588 60.588 0 0 0 63.141 43.606 A 43.781 43.781 0 0 0 73.902 37.302 A 21.893 21.893 0 0 0 80.379 29.026 A 22.738 22.738 0 0 0 82.202 19.802 A 23.331 23.331 0 0 0 81.92 15.995 Q 80.797 9.245 75.211 9.011 A 9.728 9.728 0 0 0 74.802 9.002 Q 58.804 9.002 52.948 45.867 A 179.5 179.5 0 0 0 52.802 46.802 Z M 268.202 13.202 A 40.074 40.074 0 0 0 268.163 11.358 Q 267.973 7.242 266.852 6.845 A 0.742 0.742 0 0 0 266.602 6.802 Q 260.602 6.802 257.802 56.602 Q 266.815 32.856 268.017 17.672 A 56.722 56.722 0 0 0 268.202 13.202 Z M 363.602 86.602 A 49.923 49.923 0 0 0 370.324 85.013 Q 377.11 82.863 380.902 79.002 A 18.904 18.904 0 0 0 386.139 68.177 A 26.166 26.166 0 0 0 386.402 64.402 A 20.905 20.905 0 0 0 386.198 61.344 Q 385.315 55.402 380.602 55.402 A 10.055 10.055 0 0 0 373.831 58.1 Q 372.279 59.46 370.882 61.505 A 29.854 29.854 0 0 0 368.802 65.102 A 50.673 50.673 0 0 0 363.843 82.876 A 60.045 60.045 0 0 0 363.602 86.602 Z M 204.402 58.202 A 7.48 7.48 0 0 0 202.401 58.456 A 5.574 5.574 0 0 0 199.902 59.902 A 5.704 5.704 0 0 0 198.302 63.11 A 8.049 8.049 0 0 0 198.202 64.402 Q 198.202 70.602 203.702 74.702 A 20.56 20.56 0 0 0 213.472 78.577 A 26.892 26.892 0 0 0 217.002 78.802 Q 216.802 70.602 213.802 64.402 Q 210.802 58.202 204.402 58.202 Z M 24.002 107.802 A 235.698 235.698 0 0 0 19.965 106.103 Q 12.104 102.887 9.82 102.804 A 3.23 3.23 0 0 0 9.702 102.802 Q 7.002 102.802 7.002 105.602 A 5.694 5.694 0 0 0 8.685 109.658 A 8.333 8.333 0 0 0 9.502 110.402 A 8.823 8.823 0 0 0 13.08 112.091 Q 14.34 112.383 15.806 112.401 A 15.781 15.781 0 0 0 16.002 112.402 A 7.812 7.812 0 0 0 19.69 111.425 Q 21.846 110.282 24.002 107.802 Z" vector-effect="non-scaling-stroke"/></g></svg>