<svg xmlns="http://www.w3.org/2000/svg" width="320.84" height="96.338" viewBox="0 0 310.84 96.338">
<g id="svgGroup" stroke-linecap="round" fill-rule="evenodd" font-size="9pt" style="stroke:#663399;stroke-width:0.25mm;fill:#663399">
<path d="M 143.848 63.574 L 143.848 96.338 L 127.344 96.338 L 127.344 13.916 L 133.691 13.916 L 141.016 26.172 A 20.632 20.632 0 0 1 143.97 20.581 Q 145.85 18.066 148.315 16.284 A 19.801 19.801 0 0 1 153.735 13.525 Q 156.689 12.549 159.961 12.549 A 30.981 30.981 0 0 1 166.379 13.187 A 24.827 24.827 0 0 1 171.484 14.844 A 25.09 25.09 0 0 1 180.078 21.118 A 27.221 27.221 0 0 1 185.087 29.474 A 31.324 31.324 0 0 1 185.449 30.469 A 34.364 34.364 0 0 1 187.259 40.089 A 39.636 39.636 0 0 1 187.305 41.992 Q 187.305 48.145 185.449 53.516 A 28.127 28.127 0 0 1 181.537 61.059 A 26.041 26.041 0 0 1 180.078 62.866 A 25.09 25.09 0 0 1 171.484 69.141 A 25.67 25.67 0 0 1 164.231 71.164 A 32.608 32.608 0 0 1 159.961 71.436 A 21.965 21.965 0 0 1 153.561 70.524 A 19.867 19.867 0 0 1 150.903 69.507 A 17.923 17.923 0 0 1 144.695 64.659 A 21.594 21.594 0 0 1 143.848 63.574 Z M 50.488 61.377 L 50.488 70.313 L 0 70.313 L 0 0 L 19.385 0 L 19.385 61.377 L 50.488 61.377 Z M 113.574 13.916 L 113.574 70.313 L 97.07 70.313 L 97.07 63.574 A 19.328 19.328 0 0 1 92.97 67.747 A 17.241 17.241 0 0 1 90.015 69.507 A 20.756 20.756 0 0 1 82.215 71.403 A 24.459 24.459 0 0 1 80.957 71.436 A 30.981 30.981 0 0 1 74.539 70.797 A 24.827 24.827 0 0 1 69.434 69.141 A 25.09 25.09 0 0 1 60.84 62.866 A 27.221 27.221 0 0 1 55.831 54.51 A 31.324 31.324 0 0 1 55.469 53.516 A 34.364 34.364 0 0 1 53.659 43.896 A 39.636 39.636 0 0 1 53.613 41.992 Q 53.613 35.84 55.469 30.469 A 28.127 28.127 0 0 1 59.381 22.926 A 26.041 26.041 0 0 1 60.84 21.118 A 25.09 25.09 0 0 1 69.434 14.844 A 25.67 25.67 0 0 1 76.687 12.82 A 32.608 32.608 0 0 1 80.957 12.549 A 19.706 19.706 0 0 1 87.183 13.525 A 19.801 19.801 0 0 1 92.603 16.284 A 20.135 20.135 0 0 1 96.948 20.581 A 20.632 20.632 0 0 1 99.902 26.172 L 107.227 13.916 L 113.574 13.916 Z M 245.85 18.896 L 236.572 34.277 A 53.039 53.039 0 0 0 235.994 32.475 Q 235.684 31.561 235.313 30.56 A 89.107 89.107 0 0 0 235.059 29.883 A 24.459 24.459 0 0 0 232.764 25.317 A 13.827 13.827 0 0 0 229.786 21.982 A 13.113 13.113 0 0 0 229.492 21.753 A 7.086 7.086 0 0 0 225.098 20.313 A 7.552 7.552 0 0 0 222.955 20.605 A 6.323 6.323 0 0 0 221.118 21.484 Q 219.434 22.656 218.262 24.536 Q 217.09 26.416 216.333 28.784 Q 215.576 31.152 215.161 33.569 Q 214.746 35.986 214.6 38.208 A 79.608 79.608 0 0 0 214.51 39.788 Q 214.475 40.567 214.461 41.252 A 40.371 40.371 0 0 0 214.453 42.041 L 214.453 70.313 L 197.9 70.313 L 197.9 13.916 L 204.248 13.916 L 210.938 27.051 A 38.339 38.339 0 0 1 213.365 22.318 A 34.136 34.136 0 0 1 214.063 21.216 A 21.466 21.466 0 0 1 217.55 17.12 A 19.919 19.919 0 0 1 218.115 16.626 A 17.38 17.38 0 0 1 223.315 13.623 A 17.016 17.016 0 0 1 227.032 12.726 A 22.096 22.096 0 0 1 229.883 12.549 A 27.09 27.09 0 0 1 231.897 12.628 Q 232.926 12.705 234.058 12.856 A 43.487 43.487 0 0 1 234.131 12.866 A 24.738 24.738 0 0 1 238.721 13.94 A 18.747 18.747 0 0 1 242.871 15.918 A 9.84 9.84 0 0 1 244.927 17.654 A 8.65 8.65 0 0 1 245.85 18.896 Z M 310.234 48.032 A 29.309 29.309 0 0 0 310.84 41.992 A 31.605 31.605 0 0 0 310.822 40.913 A 27.931 27.931 0 0 0 309.668 33.765 A 28.839 28.839 0 0 0 306.421 26.611 Q 304.346 23.34 301.416 20.728 Q 298.486 18.115 294.995 16.309 A 33.626 33.626 0 0 0 287.524 13.525 Q 283.545 12.549 279.346 12.549 A 33.891 33.891 0 0 0 271.191 13.525 A 33.73 33.73 0 0 0 263.745 16.309 A 31.056 31.056 0 0 0 257.324 20.728 A 27.81 27.81 0 0 0 252.319 26.611 A 28.839 28.839 0 0 0 249.072 33.765 A 26.414 26.414 0 0 0 248.674 35.237 A 28.867 28.867 0 0 0 247.9 41.992 A 31.605 31.605 0 0 0 247.919 43.071 A 27.931 27.931 0 0 0 249.072 50.22 A 28.839 28.839 0 0 0 252.319 57.373 Q 254.395 60.645 257.324 63.257 Q 260.254 65.869 263.745 67.676 A 33.73 33.73 0 0 0 271.191 70.459 Q 275.146 71.436 279.346 71.436 A 34.191 34.191 0 0 0 287.524 70.459 Q 291.504 69.482 294.995 67.676 A 31.056 31.056 0 0 0 301.416 63.257 A 27.81 27.81 0 0 0 306.421 57.373 A 28.942 28.942 0 0 0 309.668 50.244 A 26 26 0 0 0 310.234 48.032 Z M 294.043 41.992 A 46.032 46.032 0 0 0 293.916 38.643 A 54.588 54.588 0 0 0 293.774 37.036 A 35.933 35.933 0 0 0 292.871 31.909 Q 292.236 29.395 291.138 27.075 A 16.385 16.385 0 0 0 289.201 23.926 A 14.691 14.691 0 0 0 288.428 23.022 Q 286.816 21.289 284.57 20.239 A 10.927 10.927 0 0 0 281.645 19.363 A 14.632 14.632 0 0 0 279.346 19.189 A 12.779 12.779 0 0 0 276.672 19.458 A 10.185 10.185 0 0 0 274.316 20.264 A 12.762 12.762 0 0 0 270.483 23.12 Q 268.848 24.902 267.749 27.246 Q 266.65 29.59 265.967 32.104 A 34.086 34.086 0 0 0 264.99 37.183 A 46.081 46.081 0 0 0 264.742 40.189 A 37.404 37.404 0 0 0 264.697 41.992 A 39.292 39.292 0 0 0 264.812 44.924 A 48.361 48.361 0 0 0 264.99 46.802 A 34.806 34.806 0 0 0 265.967 51.904 Q 266.65 54.443 267.749 56.763 A 16.529 16.529 0 0 0 270.181 60.525 A 15.458 15.458 0 0 0 270.483 60.864 A 12.762 12.762 0 0 0 274.316 63.721 A 10.508 10.508 0 0 0 277.556 64.679 A 13.44 13.44 0 0 0 279.346 64.795 A 13.898 13.898 0 0 0 282.064 64.541 A 10.734 10.734 0 0 0 284.521 63.745 A 12.437 12.437 0 0 0 288.403 60.937 A 15.598 15.598 0 0 0 291.08 56.956 A 17.424 17.424 0 0 0 291.113 56.885 Q 292.188 54.59 292.847 52.051 Q 293.506 49.512 293.774 46.924 A 50.255 50.255 0 0 0 294.017 43.481 A 42.96 42.96 0 0 0 294.043 41.992 Z M 96.973 41.992 A 49.251 49.251 0 0 0 96.869 38.856 A 58.011 58.011 0 0 0 96.753 37.354 A 37.317 37.317 0 0 0 95.996 32.52 Q 95.459 30.127 94.507 27.954 A 14.693 14.693 0 0 0 92.158 24.202 A 13.937 13.937 0 0 0 92.065 24.097 Q 90.576 22.412 88.477 21.436 A 10.252 10.252 0 0 0 85.742 20.62 A 13.735 13.735 0 0 0 83.594 20.459 A 13.033 13.033 0 0 0 81.222 20.665 A 9.543 9.543 0 0 0 78.76 21.46 Q 76.709 22.461 75.244 24.146 A 14.704 14.704 0 0 0 73.042 27.553 A 16.708 16.708 0 0 0 72.827 28.027 Q 71.875 30.225 71.338 32.617 A 37.391 37.391 0 0 0 70.581 37.427 A 54.132 54.132 0 0 0 70.392 40.343 A 45.06 45.06 0 0 0 70.361 41.992 A 47.674 47.674 0 0 0 70.447 44.792 A 58.063 58.063 0 0 0 70.581 46.582 A 37.317 37.317 0 0 0 71.338 51.416 Q 71.875 53.809 72.827 56.006 A 15.178 15.178 0 0 0 74.713 59.238 A 13.89 13.89 0 0 0 75.244 59.888 A 10.998 10.998 0 0 0 78.76 62.573 A 9.582 9.582 0 0 0 81.299 63.383 A 13.107 13.107 0 0 0 83.594 63.574 A 10.485 10.485 0 0 0 86.133 63.278 A 8.66 8.66 0 0 0 88.11 62.524 A 11.711 11.711 0 0 0 91.577 59.717 A 16.971 16.971 0 0 0 93.828 56.267 A 19.154 19.154 0 0 0 94.092 55.713 A 29.147 29.147 0 0 0 95.752 51.074 A 35.595 35.595 0 0 0 96.68 46.313 A 41.141 41.141 0 0 0 96.899 44.049 A 30.463 30.463 0 0 0 96.973 41.992 Z M 170.557 41.992 A 47.192 47.192 0 0 0 170.471 39.202 A 56.636 56.636 0 0 0 170.337 37.427 A 37.391 37.391 0 0 0 169.58 32.617 Q 169.043 30.225 168.091 28.027 A 15.178 15.178 0 0 0 166.205 24.795 A 13.89 13.89 0 0 0 165.674 24.146 Q 164.209 22.461 162.134 21.46 Q 160.059 20.459 157.324 20.459 A 13.857 13.857 0 0 0 154.991 20.646 Q 153.584 20.886 152.417 21.436 A 10.893 10.893 0 0 0 148.853 24.097 A 14.639 14.639 0 0 0 146.441 27.886 A 16.354 16.354 0 0 0 146.411 27.954 A 24.975 24.975 0 0 0 144.922 32.52 A 37.317 37.317 0 0 0 144.165 37.354 Q 143.945 39.795 143.945 41.992 Q 143.945 43.945 144.238 46.313 A 35.595 35.595 0 0 0 145.166 51.074 Q 145.801 53.467 146.826 55.713 A 17.509 17.509 0 0 0 148.843 59.098 A 16.001 16.001 0 0 0 149.341 59.717 A 11.711 11.711 0 0 0 152.808 62.524 A 8.974 8.974 0 0 0 155.94 63.491 A 11.24 11.24 0 0 0 157.324 63.574 A 13.033 13.033 0 0 0 159.696 63.369 A 9.543 9.543 0 0 0 162.158 62.573 Q 164.209 61.572 165.674 59.888 A 14.704 14.704 0 0 0 167.876 56.48 A 16.708 16.708 0 0 0 168.091 56.006 Q 169.043 53.809 169.58 51.416 A 37.317 37.317 0 0 0 170.337 46.582 A 55.301 55.301 0 0 0 170.526 43.645 A 45.34 45.34 0 0 0 170.557 41.992 Z" vector-effect="non-scaling-stroke"/>
</g>
</svg>
